<?xml version="1.0" standalone="no"?>
<!DOCTYPE svg PUBLIC "-//W3C//DTD SVG 20010904//EN"
 "http://www.w3.org/TR/2001/REC-SVG-20010904/DTD/svg10.dtd">
<svg version="1.0" xmlns="http://www.w3.org/2000/svg"
 width="192.000000pt" height="192.000000pt" viewBox="0 0 192.000000 192.000000"
 preserveAspectRatio="xMidYMid meet">

<g transform="translate(0.000000,192.000000) scale(0.100000,-0.100000)"
fill="#000000" stroke="none">
<path d="M834 1905 c-151 -23 -298 -79 -414 -158 -66 -45 -186 -163 -235 -232
-132 -186 -201 -441 -175 -647 23 -177 82 -332 175 -463 49 -69 169 -187 235
-232 124 -84 281 -141 447 -163 198 -25 451 40 633 163 66 45 186 163 235 232
132 186 201 441 175 648 -32 243 -125 433 -291 593 -155 148 -316 226 -539
259 -111 17 -137 17 -246 0z m14 -588 c1 -115 6 -207 11 -205 4 2 42 28 83 58
l76 54 4 148 c2 81 6 150 9 153 8 7 342 -16 352 -24 4 -5 3 -70 -3 -147 -20
-245 -7 -214 -115 -281 -52 -32 -95 -61 -95 -64 0 -3 39 -23 88 -43 48 -21 92
-42 98 -47 6 -5 16 -39 22 -76 41 -237 61 -378 54 -385 -4 -4 -88 -9 -187 -10
l-180 -3 -9 145 -8 145 -81 55 c-44 30 -85 57 -90 59 -6 2 -8 -69 -6 -195 l4
-199 -169 -8 c-93 -5 -172 -5 -176 0 -4 4 -11 247 -15 540 l-7 532 128 4 c71
2 147 3 169 3 l40 -1 3 -208z"/>
</g>
</svg>
